<?xml version="1.0" standalone="no"?>
<!DOCTYPE svg PUBLIC "-//W3C//DTD SVG 20010904//EN"
 "http://www.w3.org/TR/2001/REC-SVG-20010904/DTD/svg10.dtd">
<svg version="1.0" xmlns="http://www.w3.org/2000/svg"
 width="150.000000pt" height="150.000000pt" viewBox="0 0 150.000000 150.000000"
 preserveAspectRatio="xMidYMid meet">
<metadata>
Created by potrace 1.13, written by Peter Selinger 2001-2015
</metadata>
<g transform="translate(0.000000,150.000000) scale(0.100000,-0.100000)"
fill="#000000" stroke="none">
<path d="M0 750 l0 -750 750 0 750 0 0 750 0 749 -749 0 -750 1 -1 -750z m313
733 c-7 -2 -19 -2 -25 0 -7 3 -2 5 12 5 14 0 19 -2 13 -5z m402 -3 c-3 -5 -12
-10 -18 -10 -7 0 -6 4 3 10 19 12 23 12 15 0z m199 -9 c4 -5 -3 -7 -14 -4 -23
6 -26 13 -6 13 8 0 17 -4 20 -9z m-576 -8 c-10 -2 -28 -2 -40 0 -13 2 -5 4 17
4 22 1 32 -1 23 -4z m548 -12 c5 1 16 0 24 -4 8 -3 32 -11 52 -17 33 -10 37
-14 28 -31 -12 -21 -14 -22 -47 -13 -29 8 -19 24 15 25 24 0 25 1 7 9 -28 12
-45 12 -42 -1 1 -6 -8 -18 -21 -26 -22 -15 -22 -15 -7 13 8 15 13 29 12 30 -1
1 -20 4 -42 8 -27 5 -35 4 -26 -3 12 -8 12 -12 2 -24 -9 -11 -20 -13 -41 -7
-17 5 -32 5 -35 0 -3 -5 -18 -7 -33 -5 -15 1 -34 -2 -42 -9 -8 -6 -7 -1 4 11
19 22 74 39 110 34 10 -1 15 2 12 7 -8 13 35 21 50 10 7 -5 16 -8 20 -7z
m-696 5 c0 -2 -7 -7 -16 -10 -8 -3 -12 -2 -9 4 6 10 25 14 25 6z m67 -2 c-3
-3 -12 -4 -19 -1 -8 3 -5 6 6 6 11 1 17 -2 13 -5z m429 -3 c-3 -4 -18 -6 -33
-4 -21 3 -24 2 -13 -6 18 -12 14 -16 -24 -25 -26 -6 -28 -5 -17 8 11 13 11 16
0 17 -8 0 -5 4 6 9 26 11 88 12 81 1z m-266 -26 c13 -14 21 -25 18 -25 -2 0
-15 11 -28 25 -13 14 -21 25 -18 25 2 0 15 -11 28 -25z m-230 10 c0 -2 -10 -9
-22 -15 -22 -11 -22 -10 -4 4 21 17 26 19 26 11z m388 -12 c-2 -10 -12 -19
-23 -21 -20 -3 -20 -3 -1 13 21 16 15 18 -22 8 -17 -4 -20 -8 -11 -14 16 -10
12 -14 -22 -23 -19 -4 -29 -1 -32 8 -4 10 7 19 36 30 58 20 79 20 75 -1z m301
-14 c-13 -25 -5 -34 41 -47 33 -10 33 -10 8 -11 -16 -1 -30 -1 -33 -1 -3 0
-14 -9 -25 -20 -12 -12 -26 -17 -32 -14 -9 6 -9 9 -1 11 8 3 6 10 -4 23 -23
26 -36 14 -19 -18 14 -27 4 -72 -16 -72 -5 0 -7 -4 -4 -8 3 -5 -1 -9 -9 -9
-12 0 -12 4 1 21 19 28 18 62 -3 70 -15 6 -15 8 -3 16 17 11 11 12 -47 12 -23
-1 -45 3 -48 8 -4 6 30 10 84 10 82 0 90 -2 85 -17 -5 -14 -4 -15 4 -4 11 16
5 41 -10 41 -6 0 -5 6 2 15 7 8 19 15 27 15 11 0 11 -4 2 -21z m-769 -2 c0 -2
-10 -12 -22 -23 l-23 -19 19 23 c18 21 26 27 26 19z m546 -5 c-2 -4 -22 -8
-43 -9 -33 -1 -34 0 -13 7 33 11 62 12 56 2z m419 -19 c55 -27 69 -43 39 -43
-8 0 -13 4 -10 9 7 10 -57 9 -65 -1 -7 -11 -60 15 -56 27 2 6 14 12 27 13 18
3 20 6 9 13 -29 18 2 8 56 -18z m-945 14 c0 -2 -12 -14 -27 -28 l-28 -24 24
28 c23 25 31 32 31 24z m1347 -3 c-3 -3 -12 -4 -19 -1 -8 3 -5 6 6 6 11 1 17
-2 13 -5z m-1027 -16 c0 -15 -31 -21 -43 -9 -9 9 -8 11 7 5 12 -5 17 -4 13 3
-3 5 0 10 8 10 8 0 15 -4 15 -9z m110 2 c-20 -13 -33 -13 -25 0 3 6 14 10 23
10 15 0 15 -2 2 -10z m857 4 c-3 -3 -12 -4 -19 -1 -8 3 -5 6 6 6 11 1 17 -2
13 -5z m-911 -19 c-33 -25 -11 -27 60 -6 72 23 93 22 47 -3 -15 -8 -40 -26
-55 -40 -21 -20 -27 -22 -32 -11 -7 18 -32 20 -39 3 -3 -7 -6 4 -6 24 -1 27 4
38 17 41 28 7 28 7 8 -8z m851 9 c-3 -3 -12 -4 -19 -1 -8 3 -5 6 6 6 11 1 17
-2 13 -5z m-967 -12 c0 -5 -15 -16 -32 -25 -27 -14 -28 -17 -8 -12 33 8 41 10
70 22 14 6 29 8 35 5 5 -4 -7 -13 -27 -22 -21 -8 -38 -21 -38 -27 0 -7 -7 -13
-15 -13 -8 0 -15 -6 -15 -12 0 -9 -3 -8 -9 1 -8 12 -12 10 -21 -10 -12 -26
-40 -36 -40 -15 0 21 31 56 43 49 7 -4 7 0 -1 10 -12 14 -10 19 20 37 38 23
38 23 38 12z m917 2 c-3 -3 -12 -4 -19 -1 -8 3 -5 6 6 6 11 1 17 -2 13 -5z
m120 0 c-3 -3 -12 -4 -19 -1 -8 3 -5 6 6 6 11 1 17 -2 13 -5z m-180 -10 c-3
-3 -12 -4 -19 -1 -8 3 -5 6 6 6 11 1 17 -2 13 -5z m-578 -41 c0 -30 -7 -44
-32 -64 -18 -15 -43 -29 -57 -33 -23 -7 -24 -6 -7 8 10 8 18 18 18 23 0 4 7 8
17 8 31 0 44 16 39 45 -5 22 6 50 20 50 2 0 3 -17 2 -37z m71 26 c0 -5 5 -7
10 -4 16 10 11 -1 -9 -19 -18 -16 -19 -16 -23 9 -4 17 -1 25 8 25 8 0 14 -5
14 -11z m458 -14 c-3 -3 -9 2 -12 12 -6 14 -5 15 5 6 7 -7 10 -15 7 -18z
m-248 -8 c0 -7 -5 -18 -12 -25 -9 -9 -9 -18 0 -37 21 -46 88 -25 80 25 -4 28
-22 26 -23 -2 0 -13 -7 -24 -17 -26 -24 -5 -22 7 5 41 22 28 97 51 97 29 0 -5
-10 -8 -22 -5 -22 5 -23 5 -3 -8 11 -8 28 -18 37 -24 9 -5 30 -20 46 -33 19
-13 33 -18 37 -12 3 5 0 10 -8 10 -24 0 -60 38 -53 56 4 10 12 14 22 10 9 -3
20 -6 25 -6 16 0 10 -18 -8 -23 -10 -3 -5 -5 12 -6 20 -1 41 -13 65 -37 l35
-36 -42 3 c-32 3 -39 2 -31 -8 6 -7 21 -10 39 -6 30 6 74 -20 64 -37 -3 -4 1
-10 9 -13 19 -7 78 -97 64 -97 -7 0 -4 -6 7 -13 10 -8 15 -19 11 -26 -4 -6 0
-18 8 -27 9 -8 16 -24 16 -34 0 -10 5 -22 10 -25 15 -9 13 -48 -2 -39 -7 4 -5
-2 5 -13 34 -39 14 -60 -23 -23 -15 15 -20 16 -20 6 0 -8 9 -18 20 -21 26 -8
50 -44 47 -73 0 -12 -3 -22 -6 -22 -14 0 -41 37 -41 57 0 12 -4 23 -10 23 -6
0 -10 -30 -10 -70 l0 -70 -42 1 -43 2 38 10 c50 14 49 40 -3 61 -22 9 -40 19
-40 22 0 11 34 33 51 34 21 0 30 21 22 50 -5 18 -12 21 -47 18 -40 -3 -41 -4
-44 -43 -2 -22 -4 -71 -3 -110 1 -59 4 -72 22 -86 19 -14 19 -17 5 -22 -12 -5
-15 -14 -10 -31 5 -22 3 -24 -17 -19 -33 9 -15 -13 21 -25 36 -13 47 0 26 30
-15 20 -14 23 17 41 30 18 30 20 12 28 -15 6 -11 8 18 8 31 1 37 -2 37 -19 0
-11 5 -20 10 -20 17 0 16 62 -1 68 -12 5 -12 72 0 72 5 0 16 -11 24 -24 13
-20 14 -33 4 -90 -12 -70 -19 -78 -39 -46 -7 11 -16 20 -21 20 -4 0 2 -13 14
-29 16 -22 19 -36 14 -62 -7 -31 -8 -32 -22 -13 -15 18 -15 18 -8 -4 7 -25
-12 -95 -25 -87 -4 2 -10 -8 -13 -23 -3 -15 -15 -37 -27 -50 -12 -12 -20 -28
-17 -35 2 -7 23 17 46 52 45 71 61 90 41 51 -20 -38 -65 -101 -102 -141 -18
-19 -28 -28 -22 -20 38 54 21 55 -31 3 l-37 -37 4 36 c2 24 0 35 -7 33 -6 -3
-9 -19 -7 -37 3 -28 -1 -37 -32 -61 -20 -15 -36 -24 -36 -21 0 4 -8 -1 -17
-11 -17 -17 -18 -17 -21 5 -2 12 2 29 9 37 10 12 9 13 -4 9 -8 -4 -18 -22 -21
-41 -4 -18 -15 -38 -26 -44 -26 -14 -30 -13 -30 8 0 13 -5 11 -23 -11 -12 -16
-34 -29 -50 -31 -15 -1 -30 -6 -34 -9 -3 -4 -20 -7 -37 -7 l-31 1 33 29 c18
17 27 30 20 30 -6 0 -23 -13 -37 -30 -14 -16 -39 -32 -56 -35 l-30 -7 33 31
c18 17 26 31 19 31 -7 0 -23 -14 -36 -30 -17 -23 -29 -30 -51 -28 -36 3 -38
11 -8 32 12 9 18 16 13 16 -5 0 -21 -12 -36 -26 -20 -19 -33 -24 -49 -19 -17
5 -19 9 -9 21 6 8 26 18 43 23 l31 9 -27 1 c-16 1 -37 -8 -49 -20 -25 -25 -51
-11 -29 16 7 8 9 15 5 15 -4 0 -13 -7 -19 -16 -10 -13 -42 -19 -85 -15 -18 1
5 31 25 31 8 0 14 5 14 10 0 14 -11 12 -31 -6 -14 -12 -24 -14 -46 -7 -34 12
-38 38 -5 37 15 0 19 3 13 9 -7 7 -19 6 -36 -3 -29 -16 -61 -3 -108 43 -16 15
-33 25 -38 21 -5 -3 -9 0 -9 7 0 7 13 10 35 7 l35 -4 -62 63 c-34 35 -67 63
-73 63 -5 0 4 -11 20 -25 l30 -24 -27 -1 c-16 0 -28 5 -28 10 0 6 -8 10 -17
10 -15 0 -16 2 -3 10 8 5 10 10 4 10 -5 0 -19 7 -30 16 -10 8 -12 13 -4 9 10
-4 9 -2 -2 8 -10 8 -14 17 -10 21 4 4 -1 12 -11 17 -9 6 -17 17 -17 24 0 8 -5
15 -12 15 -6 0 -4 6 7 13 17 13 17 14 -2 19 -22 6 -52 88 -59 158 -1 19 -5 54
-8 78 -4 34 -2 42 12 42 12 0 13 3 4 12 -15 15 -16 78 -2 78 6 0 19 -15 30
-32 l20 -33 0 32 c0 17 9 60 20 94 10 35 17 65 15 67 -5 5 -25 -43 -25 -60 0
-6 -9 -3 -21 8 -15 14 -19 26 -15 49 l5 30 -14 -30 c-8 -16 -14 -25 -15 -18 0
7 5 23 11 36 l11 24 36 -19 c30 -16 52 -19 118 -16 67 4 81 2 77 -9 -3 -8 -11
-12 -18 -9 -13 5 -30 -22 -20 -32 3 -3 5 0 5 6 0 7 4 12 10 12 5 0 7 -8 4 -17
-3 -10 2 -6 10 8 8 14 16 32 18 39 2 7 25 25 52 39 28 13 78 53 112 88 57 58
123 100 151 95 6 -2 14 1 16 5 3 5 34 7 70 5 65 -4 66 -4 55 -28 -9 -18 -14
-21 -24 -13 -16 13 -65 3 -76 -14 -13 -20 -9 -46 11 -66 18 -18 17 -19 -20
-57 -21 -22 -48 -47 -60 -58 -17 -15 -19 -20 -8 -27 10 -6 11 -9 2 -9 -7 0
-13 -5 -13 -11 0 -8 5 -8 15 1 8 7 14 19 13 26 -2 7 1 13 5 12 24 -1 146 150
161 199 4 11 13 26 21 33 8 6 11 19 8 27 -5 12 -2 15 10 10 10 -4 18 1 22 13
14 43 105 83 105 47z m-652 -16 c-7 -11 -21 -23 -33 -26 -18 -7 -18 -8 -2 -12
26 -7 19 -55 -10 -68 -13 -5 -23 -15 -23 -21 0 -20 -29 -39 -42 -26 -8 8 -6
19 6 39 l17 28 -25 -28 c-23 -25 -25 -30 -11 -43 19 -19 19 -25 0 -60 l-14
-28 -14 33 c-9 20 -16 28 -19 20 -3 -8 1 -19 8 -26 7 -7 14 -17 16 -23 5 -17
34 -2 45 23 6 12 31 45 56 73 26 28 44 54 40 58 -3 3 -3 6 1 6 7 0 22 -34 36
-81 l8 -26 -37 13 c-20 7 -40 9 -46 6 -5 -4 8 -11 30 -18 l40 -11 -33 -17
c-22 -11 -31 -13 -30 -4 2 6 -6 14 -17 16 -17 4 -18 2 -6 -12 11 -14 10 -17
-9 -24 -19 -7 -20 -9 -6 -21 24 -20 19 -31 -14 -31 -18 0 -33 6 -36 15 -4 8
-10 15 -16 15 -5 0 -6 -4 -3 -10 9 -14 -1 -12 -35 5 -31 16 -37 29 -20 40 6 3
7 -1 4 -12 -5 -17 -5 -17 6 0 6 9 9 21 6 25 -7 11 11 37 25 37 7 0 14 6 17 14
3 9 0 11 -9 5 -11 -6 -11 -4 1 12 40 53 53 64 67 53 10 -9 13 -7 13 10 0 14
-4 20 -12 16 -7 -4 9 14 37 39 55 51 60 55 43 27z m154 -3 c-8 -8 -8 -15 -1
-24 14 -17 -23 -54 -53 -54 -20 0 -21 1 -3 20 22 24 8 26 -24 4 -18 -13 -20
-18 -10 -25 11 -7 9 -9 -6 -9 -50 0 -43 17 27 63 39 26 73 45 76 42 3 -3 0
-11 -6 -17z m328 3 c0 -12 -20 -25 -27 -18 -7 7 6 27 18 27 5 0 9 -4 9 -9z
m493 -70 c41 -43 80 -89 87 -102 8 -17 4 -15 -11 6 -13 17 -55 63 -94 103 -39
39 -68 72 -65 72 4 0 41 -36 83 -79z m-766 44 c0 -8 -4 -12 -8 -9 -4 2 -10 -2
-12 -8 -3 -7 -6 -3 -6 10 -1 12 5 22 12 22 8 0 14 -7 14 -15z m53 -31 c-18
-25 -38 -48 -46 -51 -8 -3 -14 -11 -14 -18 0 -15 -99 -105 -115 -105 -10 1 13
23 76 72 18 15 26 25 17 22 -11 -4 -18 -1 -18 6 0 6 -5 8 -11 4 -8 -5 -8 -9 1
-14 9 -6 6 -11 -10 -20 -16 -9 -25 -9 -33 -1 -8 8 -6 11 7 11 9 0 15 3 12 8
-2 4 9 23 25 42 15 19 29 29 29 22 0 -7 5 -10 10 -7 6 4 8 11 5 16 -5 8 1 10
20 8 3 0 20 11 36 25 43 36 44 33 9 -20z m185 6 c15 -7 10 -9 -23 -9 -26 -1
-41 3 -37 9 7 12 32 12 60 0z m-718 -57 c-3 -10 -5 -4 -5 12 0 17 2 24 5 18 2
-7 2 -21 0 -30z m403 8 c0 -5 -6 -14 -14 -20 -12 -10 -14 -9 -11 6 2 10 4 19
4 21 2 6 21 1 21 -7z m-45 -22 c5 -14 1 -27 -9 -37 -18 -19 -24 -15 -36 27 -8
28 -7 31 15 31 15 0 26 -7 30 -21z m355 -3 c0 -3 -4 -8 -10 -11 -5 -3 -10 -1
-10 4 0 6 5 11 10 11 6 0 10 -2 10 -4z m-353 -84 c-15 -16 -24 -32 -20 -37 5
-4 2 -5 -4 -1 -7 4 -13 2 -13 -4 0 -7 -7 -10 -15 -6 -8 3 -15 2 -15 -3 0 -13
-35 -19 -54 -9 -22 12 -20 25 4 31 11 3 18 1 14 -4 -3 -5 0 -9 5 -9 6 0 11 4
11 10 0 13 71 60 82 54 5 -3 8 -2 7 3 -3 20 2 26 13 15 9 -9 6 -18 -15 -40z
m1020 -48 c14 -30 23 -57 21 -59 -2 -2 -16 23 -30 55 -14 33 -24 60 -22 60 3
0 17 -25 31 -56z m-1346 9 c13 -16 12 -17 -3 -4 -10 7 -18 15 -18 17 0 8 8 3
21 -13z m14 -107 c19 8 37 -30 29 -61 -11 -46 -38 -24 -47 40 -3 22 -3 35 0
28 2 -7 10 -10 18 -7z m1372 -28 c-3 -8 -6 -5 -6 6 -1 11 2 17 5 13 3 -3 4
-12 1 -19z m-1400 -10 c-3 -8 -6 -5 -6 6 -1 11 2 17 5 13 3 -3 4 -12 1 -19z
m1410 -40 c-3 -7 -5 -2 -5 12 0 14 2 19 5 13 2 -7 2 -19 0 -25z m-1426 -25
c-9 -16 -10 -15 -11 8 0 14 3 29 8 33 12 12 14 -22 3 -41z m1319 1 c0 -8 -4
-14 -10 -14 -5 0 -10 9 -10 21 0 11 5 17 10 14 6 -3 10 -13 10 -21z m-40 -4
c0 -11 -4 -20 -10 -20 -5 0 -10 9 -10 20 0 11 5 20 10 20 6 0 10 -9 10 -20z
m170 -22 c0 -25 -3 -29 -10 -18 -13 20 -13 50 0 50 6 0 10 -15 10 -32z m-183
-105 c-3 -10 -5 -4 -5 12 0 17 2 24 5 18 2 -7 2 -21 0 -30z m53 6 c0 -5 -7 -9
-15 -9 -15 0 -20 12 -9 23 8 8 24 -1 24 -14z m-1311 -79 c1 -20 -1 -22 -9 -10
-5 8 -9 29 -9 45 0 26 2 27 9 10 5 -11 9 -31 9 -45z m1432 7 c-6 -6 -11 -20
-12 -31 0 -12 -3 -16 -5 -9 -3 6 0 31 7 55 11 35 14 39 17 19 2 -13 -1 -28 -7
-34z m-1413 -97 c0 -9 -3 -7 -8 5 -5 11 -8 29 -8 40 0 16 2 15 8 -5 4 -14 8
-32 8 -40z m1372 -27 c-11 -17 -11 -17 -6 0 3 10 6 24 7 30 0 9 2 9 5 0 3 -7
0 -20 -6 -30z m-1332 -75 c23 -52 21 -65 -1 -20 -16 29 -33 80 -25 72 3 -3 15
-26 26 -52z m1313 25 c-12 -20 -14 -14 -5 12 4 9 9 14 11 11 3 -2 0 -13 -6
-23z m-1246 -138 c17 -23 21 -33 9 -23 -10 9 -28 32 -38 50 -22 39 -11 29 29
-27z m123 -41 c12 -8 22 -19 22 -25 0 -15 -47 -10 -54 6 -3 8 -9 15 -13 14
-20 -3 -27 2 -13 11 21 13 32 12 58 -6z m-58 -39 c19 -19 32 -35 29 -35 -3 0
-20 16 -39 35 -19 19 -32 35 -29 35 3 0 20 -16 39 -35z m1000 -28 c0 -2 -12
-14 -27 -28 l-28 -24 24 28 c23 25 31 32 31 24z m-935 -27 c10 -11 16 -20 13
-20 -3 0 -13 9 -23 20 -10 11 -16 20 -13 20 3 0 13 -9 23 -20z m150 -99 c-5
-4 -113 58 -120 69 -3 5 24 -8 59 -28 35 -20 62 -39 61 -41z m720 69 c-3 -6
-21 -17 -38 -26 -36 -19 -31 -9 10 17 34 21 36 22 28 9z m-625 -97 c30 -11 31
-12 6 -8 -16 4 -43 13 -60 20 -23 11 -25 13 -6 8 14 -3 41 -12 60 -20z m461
11 c-18 -8 -47 -17 -65 -20 -18 -3 -8 3 24 15 65 23 89 25 41 5z m-322 -40 c8
-7 -54 -2 -79 6 -17 6 -9 7 25 3 28 -3 52 -7 54 -9z m206 6 c-11 -5 -33 -8
-50 -8 l-30 0 30 8 c17 4 39 8 50 8 l20 1 -20 -9z"/>
<path d="M1067 1369 c7 -7 15 -10 18 -7 3 3 -2 9 -12 12 -14 6 -15 5 -6 -5z"/>
<path d="M1040 1244 c-24 -37 -21 -55 5 -34 11 10 18 10 29 1 9 -8 16 -8 20
-2 4 5 -2 14 -11 20 -10 5 -15 13 -11 17 4 4 14 1 23 -6 9 -7 19 -10 23 -6 6
7 -35 45 -50 46 -3 0 -16 -16 -28 -36z"/>
<path d="M868 1243 c6 -2 12 -11 12 -18 0 -13 38 -28 52 -19 4 3 8 11 8 17 0
9 -3 8 -8 -1 -10 -15 -38 -7 -46 14 -3 8 -11 14 -18 13 -10 0 -10 -2 0 -6z"/>
<path d="M838 1228 c5 -5 16 -8 23 -6 8 3 3 7 -10 11 -17 4 -21 3 -13 -5z"/>
<path d="M983 1199 c22 -11 37 -23 34 -25 -3 -3 -19 2 -37 11 -18 9 -34 14
-38 11 -3 -3 -1 -6 5 -6 21 0 118 -72 163 -120 34 -36 46 -44 46 -30 0 10 -5
16 -10 13 -5 -4 -7 1 -3 11 4 10 3 15 -3 11 -12 -8 -121 85 -114 96 5 9 -54
49 -71 49 -5 -1 7 -10 28 -21z"/>
<path d="M1234 1162 c10 -12 23 -19 28 -16 11 7 11 7 -22 24 -25 13 -25 13 -6
-8z"/>
<path d="M1045 1164 c6 -5 28 -25 50 -44 l40 -35 -30 33 c-17 19 -39 38 -50
44 -11 6 -15 7 -10 2z"/>
<path d="M1151 1154 l-34 -15 23 -12 c13 -7 27 -23 30 -37 l6 -24 23 32 c40
57 17 84 -48 56z m49 -13 c0 -12 -20 -25 -27 -18 -7 7 6 27 18 27 5 0 9 -4 9
-9z"/>
<path d="M1275 1110 c3 -5 8 -10 11 -10 2 0 4 5 4 10 0 6 -5 10 -11 10 -5 0
-7 -4 -4 -10z"/>
<path d="M1217 1067 l-29 -23 22 -24 21 -25 -5 26 c-4 20 0 29 19 39 14 7 25
17 25 22 0 15 -25 8 -53 -15z"/>
<path d="M1301 1073 c7 -12 15 -20 18 -17 3 2 -3 12 -13 22 -17 16 -18 16 -5
-5z"/>
<path d="M770 1041 c0 -5 7 -11 15 -15 8 -3 15 -1 15 3 0 5 -7 11 -15 15 -8 3
-15 1 -15 -3z"/>
<path d="M782 950 c-19 -38 -32 -76 -29 -86 4 -16 5 -15 6 3 1 16 6 21 16 17
8 -4 12 -10 9 -15 -3 -5 -1 -17 5 -26 7 -13 4 -20 -12 -28 -34 -17 -33 -36 2
-29 43 9 43 -23 1 -38 -39 -13 -50 -51 -24 -79 11 -13 27 -19 41 -16 21 4 22
0 30 -87 6 -73 8 -83 13 -51 3 22 1 59 -4 81 -8 40 1 94 11 67 12 -33 23 -6
23 56 0 62 -3 72 -25 89 -15 12 -26 33 -29 53 -2 19 -7 41 -11 50 -4 11 1 22
13 31 15 10 19 21 15 41 -3 15 -8 29 -12 31 -3 1 -21 -27 -39 -64z m68 -181
c0 -5 -4 -9 -10 -9 -5 0 -10 7 -10 16 0 8 5 12 10 9 6 -3 10 -10 10 -16z m-30
-65 c0 -22 -4 -25 -27 -22 -32 3 -44 34 -16 41 36 9 43 7 43 -19z m30 6 c0
-11 -4 -20 -10 -20 -5 0 -10 9 -10 20 0 11 5 20 10 20 6 0 10 -9 10 -20z"/>
<path d="M1170 1010 c-9 -6 -10 -10 -3 -10 6 0 15 5 18 10 8 12 4 12 -15 0z"/>
<path d="M1337 1009 c7 -7 15 -10 18 -7 3 3 -2 9 -12 12 -14 6 -15 5 -6 -5z"/>
<path d="M745 1000 c3 -5 8 -10 11 -10 2 0 4 5 4 10 0 6 -5 10 -11 10 -5 0 -7
-4 -4 -10z"/>
<path d="M1185 991 c-7 -13 16 -62 27 -55 4 3 1 12 -7 21 -9 9 -14 22 -11 29
6 16 0 19 -9 5z"/>
<path d="M170 981 c0 -12 69 -35 77 -27 10 10 -30 35 -54 36 -13 0 -23 -4 -23
-9z"/>
<path d="M710 984 c0 -6 7 -17 15 -24 8 -7 15 -19 15 -26 0 -16 -29 -7 -48 15
-11 14 -12 12 -7 -14 6 -29 6 -29 -14 -11 -19 17 -19 17 -14 -3 3 -12 9 -21
13 -21 5 0 6 -9 3 -20 -4 -15 -2 -19 10 -14 12 4 17 -3 20 -28 l4 -33 1 33 c2
34 18 44 25 15 2 -10 2 -3 0 15 -2 17 0 32 5 32 22 0 20 42 -4 68 -13 15 -24
22 -24 16z"/>
<path d="M1249 961 c17 -13 22 -23 16 -39 -8 -28 1 -28 41 3 47 36 36 55 -30
55 l-51 0 24 -19z m61 1 c0 -13 -12 -22 -22 -16 -10 6 -1 24 13 24 5 0 9 -4 9
-8z"/>
<path d="M1357 959 c7 -7 15 -10 18 -7 3 3 -2 9 -12 12 -14 6 -15 5 -6 -5z"/>
<path d="M1093 931 c9 -11 9 -15 0 -18 -13 -5 -63 -50 -63 -58 0 -3 7 -5 15
-5 8 0 15 6 15 13 0 6 14 21 30 32 34 23 40 51 11 51 -16 0 -18 -3 -8 -15z"/>
<path d="M150 932 c0 -4 14 -13 30 -19 22 -8 28 -16 24 -28 -5 -13 -14 -15
-40 -10 -21 3 -34 2 -34 -5 0 -5 7 -10 15 -10 20 0 19 -13 -5 -62 -25 -53 -25
-80 0 -96 24 -14 26 -32 5 -32 -8 0 -15 -4 -15 -10 0 -5 7 -10 15 -10 18 0 20
-21 3 -38 -6 -6 -9 -14 -7 -17 9 -8 80 16 74 25 -3 5 -12 7 -19 4 -14 -5 -31
22 -18 29 4 2 24 2 44 0 38 -5 58 -30 36 -45 -9 -5 -8 -8 6 -8 16 0 17 -2 5
-17 -7 -10 -9 -15 -5 -11 5 5 25 -20 43 -53 23 -41 31 -64 23 -69 -7 -4 -3
-13 10 -25 14 -13 20 -14 20 -5 0 8 10 5 25 -10 14 -13 24 -29 21 -36 -3 -7 3
-10 15 -7 21 6 27 -12 7 -20 -10 -4 -10 -6 -1 -6 30 -2 20 23 -26 69 -28 28
-51 55 -51 60 0 16 21 22 35 10 12 -10 15 -9 15 4 0 9 -4 16 -9 16 -5 0 -12 7
-15 16 -5 14 -4 15 9 4 24 -20 28 -6 7 31 -23 40 -36 99 -22 99 6 0 9 -5 7
-11 -1 -6 4 -14 12 -17 10 -3 12 0 8 11 -4 11 1 14 23 13 31 -2 47 -12 37 -22
-4 -4 -13 -1 -22 6 -9 7 -19 10 -22 6 -10 -10 18 -27 37 -23 9 2 14 12 13 25
-3 21 11 31 20 15 2 -5 2 -2 1 5 -2 6 3 12 11 12 9 0 12 6 9 15 -7 18 7 20 26
3 12 -11 12 -10 1 5 -10 12 -10 17 -2 17 8 0 7 6 -3 16 -20 20 -20 38 0 70 9
13 14 27 11 30 -3 3 -11 -6 -19 -19 l-13 -26 -32 29 c-34 30 -33 40 4 40 15 0
23 6 23 16 0 26 -65 11 -117 -26 l-43 -31 -30 23 c-26 20 -30 28 -26 60 3 25
0 38 -10 42 -8 3 -14 1 -14 -4 0 -6 4 -10 10 -10 5 0 6 -9 1 -22 -8 -23 -53
-37 -50 -16 3 28 -2 37 -32 47 -38 13 -39 13 -39 3z m81 -104 c0 -10 2 -10 6
0 2 6 9 12 14 12 6 0 8 -4 4 -9 -3 -5 -1 -12 5 -16 5 -3 10 -1 10 6 0 7 2 10
5 8 2 -3 0 -18 -4 -35 -8 -24 -9 -25 -10 -6 -1 14 -7 22 -18 22 -11 0 -14 -3
-7 -8 6 -4 11 -33 12 -64 1 -61 -7 -69 -52 -52 -19 7 -21 24 -3 24 7 0 12 13
12 30 0 17 -3 30 -7 30 -5 0 -8 -9 -8 -20 0 -11 -4 -20 -10 -20 -5 0 -10 7
-10 15 0 8 -5 15 -11 15 -16 0 0 42 23 63 24 20 48 22 49 5z m194 -25 c-30
-16 -44 -11 -26 11 7 8 21 12 33 8 20 -5 19 -6 -7 -19z m-53 -23 c-2 -16 -8
-30 -13 -30 -10 0 -12 43 -2 53 14 14 19 6 15 -23z m-62 -22 c0 -5 -4 -8 -10
-8 -5 0 -10 10 -10 23 0 18 2 19 10 7 5 -8 10 -18 10 -22z m170 6 c19 -22 -28
-69 -59 -59 -21 6 -29 25 -11 25 6 0 10 5 10 10 0 6 -7 10 -16 10 -14 0 -14 3
-4 15 16 20 64 19 80 -1z m-190 -30 c0 -8 -7 -14 -15 -14 -17 0 -18 2 -9 24 7
18 24 12 24 -10z m60 -40 c0 -2 -7 -4 -15 -4 -8 0 -15 4 -15 10 0 5 7 7 15 4
8 -4 15 -8 15 -10z m120 -4 c0 -5 -4 -10 -10 -10 -5 0 -10 5 -10 10 0 6 5 10
10 10 6 0 10 -4 10 -10z m-74 -27 c-7 -7 -26 7 -26 19 0 6 6 6 15 -2 9 -7 13
-15 11 -17z m-90 -80 c-10 -10 -19 5 -10 18 6 11 8 11 12 0 2 -7 1 -15 -2 -18z
m74 -27 c0 -3 -4 -8 -10 -11 -5 -3 -10 -1 -10 4 0 6 5 11 10 11 6 0 10 -2 10
-4z m-20 -116 c0 -5 -4 -10 -10 -10 -5 0 -10 5 -10 10 0 6 5 10 10 10 6 0 10
-4 10 -10z"/>
<path d="M1210 911 c0 -10 19 -25 25 -20 1 2 -3 10 -11 17 -8 7 -14 8 -14 3z"/>
<path d="M1370 911 c0 -5 7 -12 16 -15 14 -5 15 -4 4 9 -14 17 -20 19 -20 6z"/>
<path d="M630 884 c0 -8 5 -12 10 -9 6 3 10 10 10 16 0 5 -4 9 -10 9 -5 0 -10
-7 -10 -16z"/>
<path d="M990 836 c0 -9 -8 -16 -19 -16 -29 0 -51 -11 -51 -24 0 -8 12 -11 35
-8 45 5 66 -3 59 -23 -4 -9 -18 -15 -35 -15 -19 0 -29 -5 -29 -15 0 -10 10
-15 29 -15 28 0 49 -15 38 -27 -3 -3 -27 -6 -53 -7 -89 -2 -58 -36 34 -36 44
0 43 -3 45 63 1 16 -4 21 -17 19 -17 -3 -17 -2 -3 19 13 18 14 26 4 43 -7 12
-12 27 -12 35 0 8 -6 16 -13 19 -6 2 -12 -3 -12 -12z"/>
<path d="M1233 826 c1 -17 9 -31 17 -33 10 -3 11 -2 4 4 -7 4 -14 19 -17 33
-4 22 -5 21 -4 -4z"/>
<path d="M560 799 c0 -11 -8 -28 -18 -37 -9 -10 -13 -14 -8 -9 21 15 26 5 24
-48 -1 -30 -7 -55 -13 -55 -5 0 -4 -4 4 -9 8 -5 12 -18 9 -29 -7 -26 12 -34
37 -16 17 13 17 14 1 14 -10 0 -14 5 -10 11 3 6 17 8 30 5 17 -5 26 -2 31 10
3 9 17 27 29 40 47 46 18 154 -37 142 -13 -3 -33 -9 -43 -13 -14 -6 -17 -5
-12 3 4 7 1 12 -8 12 -10 0 -16 -9 -16 -21z m108 -21 c7 -7 12 -27 12 -45 0
-37 -25 -56 -68 -51 -24 3 -27 8 -30 47 -2 28 1 47 10 52 19 13 62 11 76 -3z
m-33 -138 c-3 -5 -12 -7 -20 -3 -21 7 -19 13 6 13 11 0 18 -4 14 -10z"/>
<path d="M1089 779 c-38 -39 -49 -56 -30 -44 5 3 12 1 16 -5 3 -5 -1 -10 -10
-10 -23 0 -14 -23 13 -35 12 -5 22 -13 22 -17 0 -5 7 -8 15 -8 7 0 19 -8 24
-17 6 -11 11 -13 11 -5 0 7 6 12 13 10 20 -4 57 13 57 26 0 8 -12 11 -36 8
-26 -3 -35 -1 -30 7 4 6 2 11 -3 11 -6 0 -11 -4 -11 -10 0 -5 -7 -7 -16 -3
-12 4 -13 8 -3 13 8 6 6 10 -7 13 -18 5 -18 6 1 5 11 0 39 0 63 1 40 1 42 3
42 31 0 17 -9 39 -20 50 -32 32 -66 25 -111 -21z m101 -7 c20 -18 19 -19 -35
-20 -56 -1 -69 9 -37 27 26 16 51 13 72 -7z"/>
<path d="M86 765 c4 -8 8 -15 10 -15 2 0 4 7 4 15 0 8 -4 15 -10 15 -5 0 -7
-7 -4 -15z"/>
<path d="M74 702 c23 -26 26 -27 26 -5 0 9 -3 13 -7 10 -3 -4 -13 -1 -22 5
-10 8 -9 4 3 -10z"/>
<path d="M1068 659 c6 -7 12 -22 12 -33 0 -12 4 -16 9 -10 14 13 18 38 6 39
-5 0 -17 4 -25 9 -12 7 -13 6 -2 -5z"/>
<path d="M1242 654 c-7 -8 -8 -14 -3 -14 10 0 25 19 20 25 -2 1 -10 -3 -17
-11z"/>
<path d="M979 628 c26 -7 31 -12 20 -19 -10 -6 -10 -9 -1 -9 6 0 12 -7 12 -16
0 -13 2 -13 13 -2 6 8 17 23 23 33 10 19 8 20 -45 22 -52 1 -54 1 -22 -9z"/>
<path d="M90 626 c0 -2 7 -9 15 -16 13 -11 14 -10 9 4 -5 14 -24 23 -24 12z"/>
<path d="M525 620 c-3 -5 -1 -10 4 -10 6 0 11 5 11 10 0 6 -2 10 -4 10 -3 0
-8 -4 -11 -10z"/>
<path d="M390 598 c0 -32 61 -100 76 -85 2 2 -7 10 -21 17 -29 15 -33 28 -9
26 9 0 19 6 21 14 4 13 3 13 -6 0 -9 -13 -13 -13 -28 4 -17 17 -17 18 -1 13
10 -3 20 -2 23 2 2 5 -9 11 -25 13 -17 3 -30 1 -30 -4z"/>
<path d="M590 573 c-25 -19 -48 -39 -51 -45 -4 -6 -16 -7 -29 -3 -15 5 -19 10
-10 15 8 5 7 9 -6 14 -9 3 -19 4 -22 1 -3 -3 -1 -5 5 -5 6 0 9 -9 6 -20 -4
-16 0 -20 21 -20 27 0 35 -14 14 -24 -10 -3 -8 -9 5 -19 23 -19 22 -27 -4 -27
-15 0 -19 5 -15 15 3 8 1 15 -3 15 -5 0 -14 -12 -19 -27 l-10 -28 -1 27 c-1
16 6 32 17 38 16 10 15 10 -3 8 -11 -2 -25 -14 -32 -28 -7 -14 -18 -24 -24
-22 -6 1 -8 -2 -4 -7 3 -6 12 -8 20 -4 8 3 15 1 15 -4 0 -9 98 -9 107 1 4 3
11 6 16 6 6 0 0 -9 -13 -20 -19 -17 -20 -20 -6 -20 9 0 14 -5 11 -10 -4 -6
-16 -8 -27 -4 -14 4 -18 3 -13 -6 4 -7 24 -9 55 -6 29 3 52 1 55 -5 5 -7 11
-6 21 2 23 19 16 28 -16 24 -33 -4 -36 4 -20 52 6 17 10 62 8 100 l-3 70 -45
-34z m35 -57 c-1 -18 -8 -43 -14 -54 -10 -19 -14 -20 -34 -9 -12 6 -25 16 -29
22 -12 16 0 19 19 4 16 -13 16 -12 0 14 -10 16 -16 31 -13 35 3 3 6 0 6 -7 0
-8 10 -5 26 8 36 29 43 26 39 -13z m-15 -136 c0 -5 -2 -10 -4 -10 -3 0 -8 5
-11 10 -3 6 -1 10 4 10 6 0 11 -4 11 -10z"/>
<path d="M523 586 c20 -15 23 -30 4 -23 -8 3 -13 -3 -13 -14 0 -24 4 -24 26 3
14 18 15 24 4 35 -7 7 -19 13 -26 13 -9 -1 -7 -5 5 -14z"/>
<path d="M1055 585 l-30 -14 27 -1 c15 0 29 -4 32 -9 7 -11 46 -2 46 11 0 5
-4 7 -9 4 -5 -3 -11 1 -15 9 -6 18 -12 18 -51 0z"/>
<path d="M1140 585 c7 -8 9 -15 4 -15 -4 0 -3 -5 4 -12 16 -16 52 -21 52 -7 0
5 4 8 9 5 5 -4 7 3 4 14 -3 11 -9 20 -14 20 -5 0 -5 -8 -2 -17 5 -13 2 -15
-11 -10 -10 4 -20 7 -22 7 -2 0 -4 7 -4 15 0 8 -7 15 -16 15 -14 0 -14 -3 -4
-15z"/>
<path d="M1362 550 c0 -14 2 -19 5 -12 2 6 2 18 0 25 -3 6 -5 1 -5 -13z"/>
<path d="M100 553 c8 -3 21 -10 28 -16 9 -7 11 -6 6 7 -3 9 -16 16 -28 15 -14
0 -16 -2 -6 -6z"/>
<path d="M155 540 c10 -33 25 -49 25 -27 0 9 11 19 25 23 14 3 25 10 25 15 0
12 -21 11 -40 -1 -9 -6 -19 -5 -29 3 -12 10 -13 8 -6 -13z"/>
<path d="M890 553 c5 -2 8 -9 4 -14 -3 -5 0 -9 6 -9 15 0 7 23 -8 26 -7 1 -8
0 -2 -3z"/>
<path d="M931 551 c-11 -7 -9 -10 8 -15 11 -3 30 -9 41 -12 11 -3 20 -1 20 5
0 6 -9 11 -20 11 -11 0 -20 5 -20 10 0 12 -10 13 -29 1z"/>
<path d="M1170 515 c-7 -9 -10 -18 -7 -21 3 -3 10 4 17 15 13 25 8 27 -10 6z"/>
<path d="M1236 504 c5 -20 2 -26 -15 -31 -34 -9 -25 -20 21 -26 55 -7 64 7 30
50 -32 40 -45 42 -36 7z m39 -34 c3 -5 -1 -10 -9 -10 -9 0 -16 5 -16 10 0 6 4
10 9 10 6 0 13 -4 16 -10z"/>
<path d="M140 491 c0 -5 7 -15 17 -22 15 -13 15 -12 4 9 -12 23 -21 28 -21 13z"/>
<path d="M1326 474 c-4 -9 -4 -19 -1 -22 2 -3 7 3 11 12 4 9 4 19 1 22 -2 3
-7 -3 -11 -12z"/>
<path d="M880 476 c0 -2 7 -7 16 -10 8 -3 12 -2 9 4 -6 10 -25 14 -25 6z"/>
<path d="M1132 457 c-20 -21 -20 -23 -2 -23 10 0 16 4 13 9 -2 4 1 14 7 22 20
24 6 17 -18 -8z"/>
<path d="M801 454 c0 -11 3 -14 6 -6 3 7 2 16 -1 19 -3 4 -6 -2 -5 -13z"/>
<path d="M840 453 c0 -14 2 -15 9 -5 6 10 15 6 35 -18 14 -17 26 -28 26 -23 0
11 -53 63 -63 63 -4 0 -7 -8 -7 -17z"/>
<path d="M1065 440 c-3 -5 -18 -10 -32 -10 -15 0 -23 -3 -19 -7 14 -14 35 -11
52 8 9 10 14 19 11 19 -3 0 -9 -4 -12 -10z"/>
<path d="M950 429 c0 -5 9 -9 20 -9 11 0 20 2 20 4 0 2 -9 6 -20 9 -11 3 -20
1 -20 -4z"/>
<path d="M175 420 c-3 -5 1 -10 10 -10 9 0 13 5 10 10 -3 6 -8 10 -10 10 -2 0
-7 -4 -10 -10z"/>
<path d="M801 408 c-1 -26 2 -28 39 -28 38 0 39 1 28 20 -7 11 -14 16 -16 10
-6 -17 -40 -11 -45 8 -3 10 -5 6 -6 -10z"/>
<path d="M1078 401 c-8 -11 -38 -36 -67 -55 -29 -20 -49 -36 -44 -36 4 0 25
11 45 25 21 14 41 25 45 24 21 -3 34 2 28 12 -4 5 1 19 11 30 9 10 12 19 6 19
-6 0 -17 -9 -24 -19z"/>
<path d="M1286 411 c-4 -7 -5 -15 -2 -18 9 -9 19 4 14 18 -4 11 -6 11 -12 0z"/>
<path d="M690 370 c-12 -23 2 -27 19 -6 8 9 8 16 2 20 -6 4 -15 -3 -21 -14z"/>
<path d="M1291 364 c0 -11 3 -14 6 -6 3 7 2 16 -1 19 -3 4 -6 -2 -5 -13z"/>
<path d="M1241 346 c-7 -9 -8 -22 -3 -37 9 -22 10 -21 14 14 5 42 5 42 -11 23z"/>
<path d="M485 319 c-4 -6 -5 -12 -2 -15 2 -3 7 2 10 11 7 17 1 20 -8 4z"/>
<path d="M518 313 c6 -2 12 -12 12 -21 0 -15 2 -15 10 -2 9 15 -4 30 -25 29
-5 0 -4 -3 3 -6z"/>
<path d="M990 305 c-14 -8 -20 -14 -14 -15 5 0 19 7 30 15 24 18 16 19 -16 0z"/>
<path d="M555 283 c-5 -14 -3 -15 6 -6 6 6 19 9 28 6 14 -4 14 -3 1 6 -21 15
-27 14 -35 -6z"/>
<path d="M866 265 c4 -8 8 -15 10 -15 2 0 4 7 4 15 0 8 -4 15 -10 15 -5 0 -7
-7 -4 -15z"/>
<path d="M691 254 c0 -11 3 -14 6 -6 3 7 2 16 -1 19 -3 4 -6 -2 -5 -13z"/>
<path d="M741 254 c0 -11 3 -14 6 -6 3 7 2 16 -1 19 -3 4 -6 -2 -5 -13z"/>
<path d="M766 255 c4 -8 8 -15 10 -15 2 0 4 7 4 15 0 8 -4 15 -10 15 -5 0 -7
-7 -4 -15z"/>
<path d="M1125 237 c-10 -8 -14 -17 -9 -20 6 -3 15 3 22 14 14 23 12 24 -13 6z"/>
<path d="M559 238 c-6 -29 -6 -78 1 -78 12 0 16 9 25 48 5 25 3 32 -9 32 -9 0
-16 -1 -17 -2z"/>
<path d="M380 216 c0 -2 7 -7 16 -10 8 -3 12 -2 9 4 -6 10 -25 14 -25 6z"/>
<path d="M620 202 c0 -10 -6 -24 -12 -31 -17 -17 17 -43 52 -39 22 3 25 8 25
42 0 23 -5 41 -13 44 -8 2 -10 -2 -5 -14 4 -12 2 -15 -8 -12 -8 3 -13 11 -11
17 1 6 -5 11 -13 11 -8 0 -15 -8 -15 -18z m40 -42 c0 -11 -4 -20 -9 -20 -14 0
-23 18 -16 30 10 17 25 11 25 -10z"/>
<path d="M738 213 c-19 -5 -24 -18 -9 -27 5 -3 12 1 15 10 3 8 11 12 16 9 8
-5 7 -11 -1 -21 -8 -10 -8 -14 0 -14 14 0 14 -27 0 -35 -6 -4 -17 1 -24 11
-13 17 -14 17 -15 2 0 -25 37 -32 66 -13 21 13 23 19 13 31 -6 8 -9 17 -6 21
9 8 -12 33 -27 32 -6 -1 -19 -3 -28 -6z"/>
<path d="M828 214 c-10 -9 15 -75 26 -71 10 3 10 53 -1 70 -5 8 -17 9 -25 1z"/>
<path d="M1004 165 c-10 -8 -14 -15 -8 -15 6 0 17 7 24 15 16 19 9 19 -16 0z"/>
<path d="M945 147 c-17 -7 -31 -20 -32 -30 -1 -17 2 -16 25 5 15 12 31 26 37
30 12 10 7 9 -30 -5z"/>
<path d="M510 1210 c-9 -6 -10 -10 -3 -10 6 0 15 5 18 10 8 12 4 12 -15 0z"/>
</g>
</svg>
