<?xml version="1.0" standalone="no"?>
<!DOCTYPE svg PUBLIC "-//W3C//DTD SVG 20010904//EN"
 "http://www.w3.org/TR/2001/REC-SVG-20010904/DTD/svg10.dtd">
<svg version="1.0" xmlns="http://www.w3.org/2000/svg"
 width="150.000000pt" height="150.000000pt" viewBox="0 0 150.000000 150.000000"
 preserveAspectRatio="xMidYMid meet">
<metadata>
Created by potrace 1.13, written by Peter Selinger 2001-2015
</metadata>
<g transform="translate(0.000000,150.000000) scale(0.100000,-0.100000)"
fill="#000000" stroke="none">
<path d="M696 1467 c-16 -18 -26 -27 -22 -20 7 13 -153 -19 -182 -37 -14 -8
-12 -9 11 -4 17 4 27 2 27 -5 0 -6 -6 -11 -14 -11 -8 0 -21 -3 -29 -6 -10 -3
-18 2 -21 14 -34 106 -233 110 -353 7 -120 -102 -146 -254 -59 -341 l32 -32
-17 -53 c-9 -30 -24 -77 -33 -106 -18 -57 -21 -169 -7 -205 5 -13 16 -54 25
-93 58 -252 255 -444 524 -511 117 -29 198 -30 314 -4 264 58 466 242 542 495
8 28 22 75 31 107 19 64 17 107 -13 224 -42 162 -95 258 -202 362 -32 32 -59
66 -62 77 -3 16 -11 20 -45 19 -24 0 -40 2 -38 5 6 5 -45 41 -58 41 -11 0 14
-25 33 -33 8 -4 3 -5 -12 -2 -15 3 -28 0 -30 -6 -3 -8 -10 -8 -26 2 -28 18
-28 37 1 41 29 5 -88 45 -157 55 l-50 6 45 13 c56 17 60 17 52 -2 -4 -10 3 -8
18 7 33 32 15 35 -71 9 -39 -12 -84 -23 -100 -25 -27 -3 -29 -1 -20 15 22 41
5 40 -34 -3z m-322 -11 c35 -15 79 -63 73 -80 -2 -6 -12 -13 -23 -14 -18 -4
-18 -3 1 12 19 16 19 16 -7 5 -16 -7 -28 -16 -28 -21 0 -5 -4 -6 -10 -3 -5 3
-10 2 -10 -3 0 -4 -16 -16 -35 -25 -20 -9 -38 -24 -41 -32 -4 -8 -10 -13 -14
-10 -10 6 -108 -105 -149 -169 -34 -55 -42 -81 -12 -45 l19 24 10 -35 c5 -19
8 -36 6 -38 -1 -2 -15 3 -31 11 -110 58 -131 205 -45 315 76 95 210 144 296
108z m549 -42 c-1 -5 11 -9 25 -9 15 0 28 -4 29 -10 1 -5 -6 -9 -15 -8 -9 1
-28 4 -41 5 -37 5 -36 -18 1 -29 30 -10 30 -11 8 -12 -14 -1 -38 -10 -54 -20
-17 -11 -33 -18 -37 -16 -4 3 -12 -9 -19 -25 -7 -17 -17 -30 -22 -30 -5 0 -7
-4 -4 -8 3 -5 -1 -9 -9 -9 -12 0 -12 4 1 21 35 50 1 95 -43 55 l-23 -22 0 21
c0 12 -10 30 -21 41 l-21 20 33 5 c19 3 66 5 104 4 64 -3 71 -1 80 20 9 20 32
25 28 6z m-233 -99 c0 -14 -13 -33 -36 -50 -25 -19 -32 -31 -25 -38 7 -7 15
-6 27 4 10 8 15 10 12 4 -4 -6 17 -9 58 -7 l64 4 -12 -26 c-8 -18 -15 -23 -22
-16 -14 14 -49 12 -71 -4 -16 -12 -18 -19 -9 -52 6 -24 15 -38 23 -36 8 2 -1
-14 -19 -35 -35 -40 -60 -59 -60 -46 -1 4 -7 -3 -15 -17 -10 -19 -10 -27 -2
-32 9 -6 9 -8 0 -8 -7 0 -13 -8 -13 -17 0 -14 2 -15 9 -4 5 7 14 10 20 7 8 -5
8 0 1 18 -5 14 -7 27 -5 27 3 1 9 2 13 3 17 2 68 53 96 94 16 23 35 42 42 42
8 0 14 5 14 11 0 5 -4 8 -9 4 -10 -5 15 51 31 71 6 8 21 9 51 3 93 -20 182
-72 257 -150 34 -36 46 -43 46 -29 0 10 -5 16 -10 13 -5 -4 -7 1 -4 9 12 30
-155 165 -171 139 -6 -9 -10 -7 -14 8 -5 21 -27 30 -27 11 0 -5 -5 -10 -11
-10 -5 0 -8 4 -4 9 3 5 1 12 -5 16 -5 3 -10 0 -10 -7 0 -8 -5 -6 -11 5 -5 9
-15 17 -22 17 -7 0 -6 -4 3 -10 12 -8 11 -10 -7 -10 -33 0 -30 35 6 71 31 31
81 40 81 15 0 -8 -4 -18 -10 -21 -14 -9 -12 -35 3 -35 6 0 23 13 37 30 25 30
100 55 100 33 0 -6 -12 -8 -27 -6 -25 4 -24 2 8 -14 20 -10 43 -24 53 -32 10
-9 16 -10 16 -2 0 6 16 11 36 11 27 0 37 -5 41 -20 3 -11 10 -20 15 -20 5 0
16 -7 24 -15 14 -13 12 -15 -11 -15 -14 0 -36 5 -48 12 -21 11 -21 11 -2 18
16 6 13 8 -15 12 l-34 5 36 -31 c25 -22 46 -31 69 -31 25 0 34 -5 37 -18 3
-15 0 -18 -18 -12 -15 5 -20 4 -16 -4 4 -6 17 -11 29 -11 24 -1 57 -22 57 -37
0 -5 9 -18 20 -28 22 -20 27 -40 8 -30 -7 3 -3 -2 10 -11 12 -9 22 -20 22 -25
0 -5 -10 -9 -22 -9 -20 0 -19 -3 10 -20 21 -13 32 -26 29 -35 -3 -7 1 -19 9
-25 8 -7 14 -21 14 -31 0 -18 -1 -19 -25 -3 -15 10 -25 12 -25 5 0 -6 7 -11
15 -11 16 0 51 -47 42 -57 -4 -3 -19 2 -34 11 -26 16 -25 15 4 -11 32 -28 37
-40 34 -78 -2 -19 -3 -19 -21 4 -11 13 -20 32 -20 42 0 10 -4 19 -10 19 -6 0
-10 -30 -10 -70 l0 -70 -45 0 -45 0 0 70 c0 70 -12 92 -24 45 -4 -16 -11 -23
-18 -19 -9 6 -9 9 1 12 11 4 11 6 0 13 -10 6 -11 9 -1 9 6 0 12 5 12 11 0 5
-5 7 -10 4 -6 -3 -10 -2 -10 4 0 5 6 12 13 14 7 3 5 6 -5 6 -14 1 -18 -7 -18
-31 0 -37 8 -52 30 -61 13 -4 12 -6 -1 -6 -17 -1 -28 -26 -30 -71 -1 -16 -3
-19 -6 -8 -2 10 -10 15 -19 11 -8 -3 -23 2 -33 11 -13 12 -21 14 -26 7 -3 -6
-11 -11 -16 -11 -6 0 -3 7 5 15 9 9 21 15 28 14 7 -1 23 -1 36 0 49 2 7 101
-44 101 -14 0 -40 -15 -64 -39 -22 -21 -50 -41 -61 -44 -17 -4 -19 -3 -10 6
14 14 15 54 1 62 -14 9 7 45 25 45 8 0 15 7 15 15 0 8 5 15 10 15 14 0 50 38
50 53 0 7 -9 13 -19 14 -14 1 -18 -3 -14 -13 6 -17 -63 -89 -86 -89 -9 0 -15
-6 -13 -14 2 -10 -5 -12 -27 -9 -17 2 -28 1 -25 -4 3 -4 0 -8 -5 -8 -6 0 -11
-6 -11 -13 0 -9 11 -12 35 -9 45 5 66 -3 59 -23 -4 -9 -18 -15 -35 -15 -19 0
-29 -5 -29 -15 0 -10 10 -15 29 -15 17 0 32 -4 36 -9 9 -16 -26 -29 -56 -21
-21 6 -31 4 -44 -10 -16 -18 -15 -19 32 -26 41 -7 45 -9 23 -15 -24 -7 -24 -7
-2 -8 15 -1 22 -7 22 -22 0 -13 4 -18 12 -13 7 5 9 2 6 -8 -5 -11 2 -15 30
-16 19 -1 40 -6 45 -11 9 -9 47 -3 47 8 0 4 -11 14 -25 21 -20 10 -27 11 -40
0 -12 -10 -16 -9 -21 4 -3 9 0 23 7 32 11 13 9 14 -14 9 -17 -5 -27 -3 -27 4
0 6 7 11 15 11 14 0 20 24 15 60 -1 11 3 9 13 -4 8 -11 12 -28 9 -38 -2 -10 0
-18 6 -18 6 0 12 -10 14 -23 4 -21 5 -21 18 6 12 25 38 33 33 9 -1 -5 5 -13
13 -16 12 -5 15 -2 10 10 -4 10 -2 14 6 11 7 -2 21 0 31 5 13 7 19 4 27 -14 5
-13 9 -17 9 -10 1 6 8 12 16 12 8 0 15 8 15 18 0 14 -2 15 -10 2 -8 -12 -10
-11 -10 8 0 12 6 22 13 22 8 0 7 4 -3 10 -13 8 -12 10 3 10 12 0 17 -8 17 -30
l0 -30 65 0 c58 0 65 -2 65 -20 0 -23 15 -27 23 -6 7 18 -3 56 -14 56 -5 0 -9
17 -9 37 l0 36 23 -22 c22 -19 23 -27 16 -72 -4 -27 -11 -59 -15 -71 -6 -21
-6 -21 -25 3 -23 30 -25 17 -3 -16 10 -16 14 -34 10 -50 -9 -34 -24 -31 -35 7
-5 18 -10 25 -10 16 -1 -9 4 -28 10 -42 9 -19 9 -32 -1 -56 -15 -36 -30 -39
-30 -5 0 14 -5 25 -10 25 -6 0 -8 -11 -3 -28 10 -37 7 -76 -6 -80 -6 -2 -11
-10 -11 -18 0 -8 -4 -14 -9 -14 -5 0 -13 -9 -16 -20 -3 -11 -13 -20 -22 -20
-12 0 -14 8 -11 35 3 29 2 33 -9 22 -9 -9 -10 -22 -4 -42 7 -26 4 -34 -21 -60
l-30 -30 5 30 c2 17 8 39 12 50 8 20 8 20 -13 2 -11 -11 -18 -25 -15 -33 9
-25 -6 -61 -33 -79 l-27 -17 7 28 c4 16 15 38 24 48 17 19 16 19 -10 1 -15 -9
-26 -21 -23 -25 8 -13 -15 -68 -31 -74 -18 -7 -19 34 -1 53 6 7 -12 1 -41 -14
-30 -14 -85 -34 -123 -43 -39 -10 -70 -22 -70 -27 -1 -18 -30 -43 -55 -48 -13
-2 -24 -1 -24 3 0 9 31 36 50 43 8 3 0 6 -18 6 -21 1 -31 -3 -27 -10 12 -18
-26 -49 -57 -47 -15 1 -28 6 -28 11 0 5 7 7 14 4 10 -4 13 -1 10 8 -3 7 2 15
13 18 16 4 16 5 -2 6 -11 0 -26 -8 -33 -19 -8 -13 -23 -20 -45 -20 l-32 1 30
24 c21 18 25 25 14 25 -9 0 -19 -7 -23 -15 -6 -17 -46 -21 -46 -5 0 6 8 10 17
10 13 0 14 3 6 11 -9 9 -16 8 -28 -5 -11 -11 -30 -15 -55 -14 -42 3 -42 14 -2
30 15 6 21 12 15 15 -7 2 -22 -2 -34 -10 -16 -12 -28 -13 -50 -5 -35 12 -33
34 2 31 23 -3 23 -2 5 12 -16 12 -20 12 -33 -1 -18 -17 -33 -17 -57 1 -10 8
-15 19 -10 26 5 8 3 10 -5 4 -7 -4 -22 1 -34 13 -12 11 -29 22 -37 26 -8 3 2
5 22 3 l37 -3 -62 66 c-35 36 -80 93 -101 126 -28 46 -45 63 -65 67 -18 4 -31
14 -34 28 -5 18 -2 20 19 16 13 -2 24 0 24 4 0 5 -11 9 -25 9 -18 0 -28 7 -35
26 -19 49 -5 59 32 22 17 -17 20 -18 15 -4 -4 10 -7 22 -7 27 0 6 -4 8 -9 5
-4 -3 -16 1 -26 8 -13 10 -20 30 -23 75 -5 65 5 78 32 39 15 -21 16 -21 16 -3
0 11 -10 25 -22 30 -25 11 -37 60 -19 78 6 6 16 -1 30 -24 l21 -34 0 36 c0 20
9 62 20 94 11 32 20 59 20 60 0 2 -9 5 -19 8 -17 4 -18 2 -9 -13 9 -14 9 -22
-2 -35 -21 -25 -44 3 -35 43 l6 30 37 -15 c26 -11 59 -14 113 -11 63 4 76 2
72 -9 -3 -8 -11 -12 -18 -9 -8 3 -18 -8 -26 -26 -10 -25 -10 -31 2 -39 13 -8
5 -13 -15 -10 -5 1 -4 -4 3 -13 8 -10 9 -16 1 -21 -5 -3 -10 0 -11 7 0 10 -2
10 -6 1 -2 -7 -13 -13 -22 -13 -29 0 -70 -38 -80 -75 -19 -72 27 -145 92 -145
24 0 27 -3 18 -14 -13 -15 -5 -66 10 -66 5 0 6 7 3 15 -4 8 -1 15 7 15 7 0 10
-3 6 -6 -3 -4 1 -20 9 -36 16 -31 10 -54 -6 -28 -6 8 -10 11 -10 6 0 -10 39
-76 46 -76 2 0 1 7 -2 15 -4 8 -2 15 4 15 14 0 25 -32 13 -39 -5 -3 2 -19 16
-36 25 -28 25 -28 18 -5 l-8 25 22 -20 c13 -11 18 -21 12 -23 -6 -2 -11 -8
-11 -14 0 -6 7 -4 17 3 15 12 16 12 11 -2 -5 -13 -2 -16 13 -12 21 6 27 -12 7
-21 -7 -3 -2 -3 11 0 20 5 23 3 17 -11 -5 -15 -4 -16 8 -6 10 8 16 9 21 1 3
-5 1 -10 -5 -10 -6 0 -8 -5 -4 -11 5 -8 8 -8 14 0 9 16 42 2 36 -15 -3 -8 -1
-14 3 -14 5 0 11 6 14 13 3 8 -9 21 -31 33 -74 39 -169 134 -157 155 5 8 10 8
18 0 17 -17 27 -13 27 9 0 11 4 20 10 20 5 0 -2 16 -15 36 -25 37 -35 91 -14
79 6 -4 16 1 23 11 8 11 20 15 30 11 10 -4 24 -1 32 8 17 17 54 20 54 5 0 -5
5 -10 11 -10 8 0 7 6 -2 17 -12 14 -12 16 1 11 8 -2 15 -11 16 -19 0 -8 4 -21
8 -30 4 -9 6 -22 4 -29 -5 -21 15 -21 42 0 l25 19 -25 -6 c-20 -5 -23 -3 -13
7 9 10 19 11 34 4 21 -10 19 -12 -29 -47 -28 -21 -53 -43 -55 -50 -3 -7 -6 -6
-6 4 -1 9 6 22 14 29 12 10 12 14 0 26 -7 8 -20 14 -27 14 -8 -1 -6 -6 6 -15
11 -8 17 -17 14 -21 -7 -6 -48 17 -48 28 0 17 -29 7 -35 -13 -7 -21 -26 -21
-33 1 -3 7 0 10 6 6 6 -3 13 -2 17 4 3 5 -3 10 -14 10 -10 0 -26 3 -35 6 -26
10 6 -57 39 -81 22 -17 27 -18 35 -5 7 10 10 11 10 3 0 -7 9 -13 19 -13 26 0
32 -12 16 -27 -10 -9 -15 -9 -17 -1 -6 17 -39 1 -45 -22 -3 -11 -12 -20 -20
-20 -8 0 -12 -4 -8 -10 3 -5 12 -7 20 -3 8 3 15 1 15 -4 0 -9 98 -9 107 1 4 3
10 6 15 6 5 0 3 -7 -6 -15 -8 -8 -26 -15 -40 -15 -14 0 -26 -4 -26 -8 0 -4 15
-7 33 -6 18 1 22 -1 9 -3 -18 -3 -21 -7 -12 -18 8 -9 21 -10 52 -3 27 6 45 5
51 -1 7 -7 15 -7 24 0 20 17 16 31 -7 24 -12 -4 -20 -2 -20 5 0 6 -5 8 -12 4
-8 -5 -9 0 -4 17 4 13 11 73 16 132 7 93 11 111 29 123 11 8 23 31 26 52 4 20
9 45 12 55 3 10 -1 17 -10 17 -8 0 -18 7 -21 16 -6 17 -39 16 -81 -1 -17 -8
-18 -7 -7 7 11 14 10 16 -7 11 -13 -3 -21 -14 -21 -27 0 -21 -36 -53 -48 -42
-3 4 5 25 17 49 l22 42 -24 -29 -24 -28 -27 23 c-33 28 -33 39 -1 39 16 0 25
6 25 16 0 26 -75 9 -120 -27 l-39 -31 -30 23 c-37 29 -38 53 -7 124 14 30 22
55 18 55 -3 0 18 12 47 26 29 15 84 58 122 96 44 43 80 71 99 74 32 7 35 11
20 34 -8 12 -10 12 -10 -5 0 -16 -2 -17 -9 -6 -7 10 3 30 31 67 41 55 68 62
68 19z m-315 -113 c30 3 55 2 55 -2 0 -22 -113 -105 -178 -131 -26 -10 -40
-18 -31 -19 24 0 81 21 112 42 28 20 38 10 12 -12 -12 -10 -13 -16 -3 -28 11
-13 10 -15 -4 -9 -9 3 -18 2 -20 -4 -2 -5 -32 -15 -67 -21 -58 -11 -64 -10
-77 7 -12 16 -12 21 1 34 22 24 83 102 102 133 13 20 21 24 30 16 7 -6 37 -8
68 -6z"/>
<path d="M773 1035 c4 -9 7 -24 7 -33 0 -13 3 -12 15 4 8 10 15 15 15 10 0
-17 -41 -96 -51 -96 -4 0 -6 6 -3 13 2 7 -7 24 -21 37 -29 27 -32 21 -9 -15
21 -33 0 -34 -34 -3 l-23 23 10 -28 c7 -18 7 -27 0 -27 -5 0 -12 7 -15 15 -4
8 -10 15 -15 15 -5 0 -3 -13 6 -30 8 -16 15 -39 15 -52 0 -18 2 -20 10 -8 10
16 13 11 23 -35 4 -15 5 -13 6 7 1 32 18 46 24 21 2 -10 2 -3 0 15 -3 22 -1
32 6 27 6 -3 12 -16 12 -28 1 -17 2 -18 6 -4 2 9 10 17 17 17 18 0 14 -45 -6
-67 -25 -28 -22 -33 12 -26 42 8 42 -24 0 -39 -39 -13 -50 -51 -24 -79 12 -13
27 -19 41 -16 18 3 23 0 23 -17 0 -36 19 -190 26 -213 5 -19 2 -23 -15 -23
-13 0 -21 7 -22 18 -1 11 -4 8 -8 -8 -9 -30 5 -38 57 -32 29 4 33 7 20 16 -19
14 -33 56 -19 56 5 0 19 -11 29 -25 11 -14 23 -22 26 -17 3 5 -12 24 -34 42
-38 32 -39 35 -39 94 0 34 -2 73 -6 87 -4 16 -2 30 4 33 6 4 11 2 11 -3 0 -6
5 -11 10 -11 6 0 10 28 10 65 0 57 -3 69 -26 91 -14 15 -24 35 -23 48 2 11 -3
31 -10 44 -15 29 3 60 25 42 10 -9 10 -4 1 27 -13 45 -23 60 -50 75 -17 9 -19
8 -14 -7z"/>
</g>
</svg>
